<!DOCTYPE svg PUBLIC "-//W3C//DTD SVG 1.1//EN" "http://www.w3.org/Graphics/SVG/1.1/DTD/svg11.dtd">
<!-- Uploaded to: SVG Repo, www.svgrepo.com, Transformed by: SVG Repo Mixer Tools -->
<svg width="800px" height="800px" viewBox="0 0 24 24" fill="none" xmlns="http://www.w3.org/2000/svg">
<g id="SVGRepo_bgCarrier" stroke-width="0"/>
<g id="SVGRepo_tracerCarrier" stroke-linecap="round" stroke-linejoin="round"/>
<g id="SVGRepo_iconCarrier"> <path d="M12 7C12.55 7 13 6.55 13 6C13 5.45 12.55 5 12 5C11.45 5 11 5.45 11 6C11 6.55 11.45 7 12 7Z" stroke="#ffffff" stroke-width="2"/> <path d="M12 13C12.55 13 13 12.55 13 12C13 11.45 12.55 11 12 11C11.45 11 11 11.45 11 12C11 12.55 11.45 13 12 13Z" stroke="#ffffff" stroke-width="2"/> <path d="M12 19C12.55 19 13 18.55 13 18C13 17.45 12.55 17 12 17C11.45 17 11 17.45 11 18C11 18.55 11.45 19 12 19Z" stroke="#ffffff" stroke-width="2"/> </g>
</svg>